# xmcd
#
# Track frame offsets: 
#        150
#        11053
#        23579
#        36662
#        47575
#        59656
#        73101
#        84623
#        95205
#        108621
#        121139
#        134121
#        144556
#        157781
#        167946
#        180492
#        192246
#        205047
#        217833
#        230876
#
# Disc length: 3261 seconds
#
# Revision: 0
# Processed by: cddbd v1.5.2PL0 Copyright (c) Steve Scherf et al.
# Submitted via: ExactAudioCopy v0.99pb4
#
DISCID=2a0cbb14
DTITLE=Jackie Wilson - The History Of Jackie Wilson Vol 3 - The Chicag
DTITLE=o Soul Of Jackie Wilson, CD1
DYEAR=2006
DGENRE=Soul
TTITLE0=Whispers (Gettin' Louder)
TTITLE1=I Don't Want To Lose You
TTITLE2=Just Be Sincere
TTITLE3=My Heart Is Calling
TTITLE4=I've Lost You
TTITLE5=(Your Love Keeps Lifting Me) Higher And Higher
TTITLE6=I'm The One To Do It
TTITLE7=You Can Count On Me
TTITLE8=Somebody Up There Likes You
TTITLE9=Since You Showed Me How To Be Happy [mono single version]
TTITLE10=The Who Who Song
TTITLE11=A Lovely Way To Die
TTITLE12=I Get The Sweetest Feeling
TTITLE13=Nothing But Blue Skies
TTITLE14=You Brought About A Change In Me
TTITLE15=To Change My Love
TTITLE16=Light My Fire
TTITLE17=You Keep Me Hangin' On
TTITLE18=I Still Love You
TTITLE19=Do It The Right Way
EXTD=
EXTT0=
EXTT1=
EXTT2=
EXTT3=
EXTT4=
EXTT5=
EXTT6=
EXTT7=
EXTT8=
EXTT9=
EXTT10=
EXTT11=
EXTT12=
EXTT13=
EXTT14=
EXTT15=
EXTT16=
EXTT17=
EXTT18=
EXTT19=
PLAYORDER=
